<?xml version="1.0" encoding="UTF-8"?>
<!DOCTYPE svg PUBLIC "-//W3C//DTD SVG 1.1//EN" "http://www.w3.org/Graphics/SVG/1.1/DTD/svg11.dtd">
<!-- Creator: CorelDRAW 2017 -->
<svg xmlns="http://www.w3.org/2000/svg" xml:space="preserve" width="11.811in" height="11.811in" version="1.1" style="shape-rendering:geometricPrecision; text-rendering:geometricPrecision; image-rendering:optimizeQuality; fill-rule:evenodd; clip-rule:evenodd"
viewBox="0 0 11811 11811"
 xmlns:xlink="http://www.w3.org/1999/xlink">
 <defs>
  <style type="text/css">
   <![CDATA[
    .str0 {stroke:white;stroke-width:3}
    .fil0 {fill:white}
   ]]>
  </style>
 </defs>
 <g id="Layer_x0020_1">
  <metadata id="CorelCorpID_0Corel-Layer"/>
  <path class="fil0 str0" d="M1372 6436c99,743 582,315 1249,1003 673,694 209,1445 316,1807 112,382 1189,898 1394,909 415,22 510,-264 742,-420 522,-349 1178,-341 1687,16 231,162 322,450 758,402 200,-22 632,-281 786,-374 215,-129 512,-272 580,-562 90,-379 -382,-1054 327,-1796 638,-667 1127,-236 1227,-986 26,-649 140,-1428 -416,-1599 -1876,-575 -879,-1975 -1239,-2457 -201,-269 -958,-572 -1208,-743l-264 0c-9,6 -22,14 -29,18 -551,318 -620,677 -1376,677 -512,0 -788,-208 -1078,-483 -111,-105 -209,-136 -325,-212l-267 0c-294,201 -990,448 -1221,771 -294,412 402,1401 -595,2156 -776,588 -1133,-223 -1048,1873zm4309 -2331c-956,151 -1712,930 -1576,2050 109,892 974,1708 2051,1551 930,-136 1682,-961 1552,-2051 -106,-885 -977,-1715 -2027,-1550z"/>
 </g>
</svg>
