<?xml version="1.0" encoding="UTF-8"?>
<!DOCTYPE svg PUBLIC "-//W3C//DTD SVG 1.1//EN" "http://www.w3.org/Graphics/SVG/1.1/DTD/svg11.dtd">
<!-- Creator: CorelDRAW 2017 -->
<svg xmlns="http://www.w3.org/2000/svg" xml:space="preserve" width="11.811in" height="11.811in" version="1.1" style="shape-rendering:geometricPrecision; text-rendering:geometricPrecision; image-rendering:optimizeQuality; fill-rule:evenodd; clip-rule:evenodd"
viewBox="0 0 11811 11811"
 xmlns:xlink="http://www.w3.org/1999/xlink">
 <defs>
  <style type="text/css">
   <![CDATA[
    .str0 {stroke:white;stroke-width:3}
    .fil0 {fill:white}
   ]]>
  </style>
 </defs>
 <g id="Layer_x0020_1">
  <metadata id="CorelCorpID_0Corel-Layer"/>
  <path class="fil0 str0" d="M3948 3026c-526,79 -577,512 -558,904l223 4214c27,490 -40,934 270,1189 250,206 983,126 1361,127 470,0 2663,67 2919,-59 398,-195 345,-566 375,-1086l223 -4217c23,-367 85,-828 -418,-1031 -214,-87 -2517,-48 -2927,-47 -385,1 -1133,-44 -1469,7zm381 436c-483,126 -312,784 -294,1300l133 3153c18,411 -103,1240 470,1143 429,-73 293,-715 280,-1345l-70 -3181c-5,-184 8,-626 -32,-774 -50,-182 -241,-361 -487,-297zm1662 0c-457,116 -331,642 -325,1300l31 3181c6,422 -121,1264 484,1110 237,-61 264,-273 265,-536 3,-629 79,-4593 23,-4776 -50,-165 -245,-337 -479,-278zm1666 2c-225,60 -324,200 -333,467 -18,562 -131,4707 -106,4841 42,220 278,359 518,258 217,-91 211,-289 224,-577 12,-267 24,-531 34,-798 17,-440 197,-3728 151,-3906 -50,-193 -260,-348 -489,-286z"/>
  <path class="fil0 str0" d="M4705 1935c-225,-2 -972,-39 -1127,42 -319,168 -232,641 121,692 272,39 867,6 1173,5 459,0 3389,24 3578,-8 341,-57 393,-519 137,-675 -194,-118 -855,-34 -1137,-65 -80,-179 -58,-436 -427,-577 -192,-74 -1711,-76 -1900,-5 -228,87 -400,295 -419,590zm419 -13l1892 0c-33,-478 -504,-395 -941,-393 -418,1 -922,-87 -952,393z"/>
 </g>
</svg>
