<?xml version="1.0" encoding="UTF-8"?>
<!DOCTYPE svg PUBLIC "-//W3C//DTD SVG 1.1//EN" "http://www.w3.org/Graphics/SVG/1.1/DTD/svg11.dtd">
<!-- Creator: CorelDRAW 2017 -->
<svg xmlns="http://www.w3.org/2000/svg" xml:space="preserve" width="11.811in" height="11.811in" version="1.1" style="shape-rendering:geometricPrecision; text-rendering:geometricPrecision; image-rendering:optimizeQuality; fill-rule:evenodd; clip-rule:evenodd"
viewBox="0 0 11811 11811"
 xmlns:xlink="http://www.w3.org/1999/xlink">
 <defs>
  <style type="text/css">
   <![CDATA[
    .str0 {stroke:white;stroke-width:3}
    .fil0 {fill:white}
   ]]>
  </style>
 </defs>
 <g id="Layer_x0020_1">
  <metadata id="CorelCorpID_0Corel-Layer"/>
  <path class="fil0 str0" d="M2169 5044l0 4144c0,155 112,231 270,231l6940 0c172,0 262,-87 262,-259l0 -3433c0,-159 -103,-242 -262,-242l-4640 -2c-376,-684 -205,-677 -692,-677l-1637 0c-150,0 -241,95 -241,238z"/>
  <path class="fil0 str0" d="M8177 3489c27,34 13,381 13,423 0,201 -12,1252 5,1296 36,14 432,16 484,3l3 -2092c3,-92 -197,-262 -280,-344l-1273 -1271c-171,-171 -195,-136 -501,-136l-2862 0c-396,-1 -330,251 -330,628 0,273 -17,2481 8,2540 64,21 173,6 248,6 72,0 199,19 255,-9 19,-20 7,-1973 7,-2312 0,-413 -76,-336 327,-336 112,0 224,0 337,0l1674 0c420,0 336,-85 336,392l-1 786c0,332 44,410 386,410l982 0c50,0 160,-16 183,18z"/>
  <path class="fil0 str0" d="M4900 4126c-55,14 -85,34 -90,103 -2,32 -3,160 6,185 34,92 203,68 315,68l1525 0c125,0 688,15 761,-6 129,-37 77,-281 75,-287 -36,-93 -193,-70 -311,-70 -256,0 -2203,-13 -2280,6z"/>
  <path class="fil0 str0" d="M4910 4874c-56,12 -89,34 -100,90 -6,32 -6,145 1,177 23,117 169,87 292,87l1918 0c105,0 285,11 381,-1 54,-7 88,-42 95,-91 4,-25 4,-162 -1,-184 -24,-104 -182,-84 -297,-84 -183,0 -2210,-11 -2289,6z"/>
  <path class="fil0 str0" d="M4905 3365c-63,15 -93,43 -96,106 -12,285 25,253 360,253 146,0 710,19 808,-6 51,-13 82,-51 88,-107 29,-291 -67,-252 -354,-252 -112,0 -754,-8 -807,5z"/>
  <path class="fil0 str0" d="M4905 2607c-62,13 -90,38 -95,107 -21,293 53,251 359,251 114,0 755,8 810,-4 140,-31 81,-289 76,-299 -47,-88 -228,-61 -343,-61 -123,0 -740,-8 -807,6z"/>
  <path class="fil0 str0" d="M8177 3489c-3,541 5,1090 -2,1630l4 83c6,19 3,12 11,22 34,13 459,13 497,1 25,-20 10,-1501 10,-1584l-16 -522 -3 2092c-52,13 -448,12 -484,-3 -17,-44 -5,-1095 -5,-1296 0,-43 14,-389 -13,-423z"/>
 </g>
</svg>
