<?xml version="1.0" encoding="UTF-8"?>
<!DOCTYPE svg PUBLIC "-//W3C//DTD SVG 1.1//EN" "http://www.w3.org/Graphics/SVG/1.1/DTD/svg11.dtd">
<!-- Creator: CorelDRAW 2017 -->
<svg xmlns="http://www.w3.org/2000/svg" xml:space="preserve" width="11.811in" height="11.811in" version="1.1" style="shape-rendering:geometricPrecision; text-rendering:geometricPrecision; image-rendering:optimizeQuality; fill-rule:evenodd; clip-rule:evenodd"
viewBox="0 0 11811 11811"
 xmlns:xlink="http://www.w3.org/1999/xlink">
 <defs>
  <style type="text/css">
   <![CDATA[
    .fil0 {fill:white}
   ]]>
  </style>
 </defs>
 <g id="Layer_x0020_1">
  <metadata id="CorelCorpID_0Corel-Layer"/>
  <path class="fil0" d="M8684 4864c-118,60 -492,462 -615,587 -385,388 -341,196 -341,918 0,820 22,1670 -3,2486l-4718 0 1 -4722c817,13 1643,1 2461,1 704,0 533,68 910,-310 126,-126 551,-521 616,-644 -506,6 -3972,-48 -4281,47 -332,103 -610,409 -653,801 -31,283 -7,3743 -7,4343 0,1220 235,1437 1445,1437 598,0 4055,25 4338,-7 1047,-120 844,-1274 844,-2043 0,-951 -29,-1948 3,-2893z"/>
  <path class="fil0" d="M4278 6605l987 986 1508 -1500c215,-215 1438,-1390 1510,-1543l-968 -957c-134,31 -260,200 -405,345l-1130 1131c-209,211 -1444,1401 -1502,1539z"/>
  <path class="fil0" d="M8280 2594l989 985 351 -334c-112,-147 -904,-945 -1023,-1006 -98,125 -243,208 -316,355z"/>
  <path class="fil0" d="M7616 3228c91,193 786,788 971,1017 133,-66 271,-232 357,-330l-990 -998 -337 311z"/>
  <path class="fil0" d="M3943 7918l946 -1c-70,-122 -820,-868 -942,-940l-4 940z"/>
 </g>
</svg>
