<?xml version="1.0" encoding="UTF-8"?>
<!DOCTYPE svg PUBLIC "-//W3C//DTD SVG 1.1//EN" "http://www.w3.org/Graphics/SVG/1.1/DTD/svg11.dtd">
<!-- Creator: CorelDRAW 2017 -->
<svg xmlns="http://www.w3.org/2000/svg" xml:space="preserve" width="11.811in" height="11.811in" version="1.1" style="shape-rendering:geometricPrecision; text-rendering:geometricPrecision; image-rendering:optimizeQuality; fill-rule:evenodd; clip-rule:evenodd"
viewBox="0 0 11811 11811"
 xmlns:xlink="http://www.w3.org/1999/xlink">
 <defs>
  <style type="text/css">
   <![CDATA[
    .fil0 {fill:white}
   ]]>
  </style>
 </defs>
 <g id="Layer_x0020_1">
  <metadata id="CorelCorpID_0Corel-Layer"/>
  <g id="_2122617804880">
   <path class="fil0" d="M8946 3222c-94,-73 -220,-215 -312,-307l-621 -621c-85,-85 -226,-244 -311,-305 -480,453 -1094,1095 -1583,1581 -536,534 -1058,1059 -1594,1594 -212,212 -1430,1405 -1594,1593 -96,110 -717,1539 -885,1900 -36,78 -130,216 -48,289 83,73 441,-132 545,-179 262,-118 1476,-656 1625,-757 133,-91 3093,-3079 3195,-3180l1191 -1191c78,-79 351,-323 392,-418zm-6542 5069c241,14 186,85 249,237l1272 -574 16 -413 -558 13 17 -559 -408 14c-36,44 -559,1185 -587,1283z"/>
   <path class="fil0" d="M7877 1816c87,88 1186,1205 1260,1246 132,-169 434,-354 493,-629 80,-378 -181,-544 -385,-749 -195,-196 -370,-461 -744,-377 -190,43 -246,129 -344,226 -90,89 -206,193 -281,284z"/>
  </g>
 </g>
</svg>
