<?xml version="1.0" encoding="UTF-8"?>
<!DOCTYPE svg PUBLIC "-//W3C//DTD SVG 1.1//EN" "http://www.w3.org/Graphics/SVG/1.1/DTD/svg11.dtd">
<!-- Creator: CorelDRAW 2017 -->
<svg xmlns="http://www.w3.org/2000/svg" xml:space="preserve" width="11.811in" height="11.811in" version="1.1" style="shape-rendering:geometricPrecision; text-rendering:geometricPrecision; image-rendering:optimizeQuality; fill-rule:evenodd; clip-rule:evenodd"
viewBox="0 0 11811 11811"
 xmlns:xlink="http://www.w3.org/1999/xlink">
 <defs>
  <style type="text/css">
   <![CDATA[
    .fil0 {fill:white}
   ]]>
  </style>
 </defs>
 <g id="Layer_x0020_1">
  <metadata id="CorelCorpID_0Corel-Layer"/>
  <path class="fil0" d="M1938 10119c324,105 984,-242 1450,-433 826,-339 755,-217 1294,-752l4048 -4048c342,-344 656,-661 1002,-1001 251,-247 351,-300 52,-591 -182,-178 -331,-332 -512,-511 -203,-202 -612,-684 -771,-684 -158,0 -206,122 -297,216 -342,355 -674,672 -1022,1022l-4048 4048c-549,551 -367,333 -744,1261 -147,361 -560,1138 -451,1472zm806 -1116l311 304c0,0 -535,266 -591,269 -56,3 280,-573 280,-573zm113 -174l400 387c433,-176 724,-238 971,-490 253,-257 480,-481 736,-736 501,-500 971,-971 1472,-1472l2208 -2208c195,-195 612,-544 722,-756l-282 -290 -3911 3912c-227,228 -426,427 -654,655 -119,119 -209,207 -327,327 -111,113 -193,254 -376,162 -39,-205 280,-431 541,-692l3905 -3905c186,-187 497,-460 636,-651l-388 -383c-238,191 -525,514 -748,737 -254,255 -481,482 -736,736 -501,499 -970,974 -1471,1473l-2209 2207c-219,217 -426,652 -489,985z"/>
  <path class="fil0" d="M7590 6491c181,315 1531,1464 1758,1807l-1290 1280 -227 -238c112,-73 329,-324 452,-443 129,-126 428,-369 143,-570 -266,-166 -618,329 -946,656l-322 -312c134,-126 449,-323 305,-562 -225,-75 -420,203 -502,321 -156,-68 -240,-182 -327,-295 139,-154 287,-294 442,-447 514,-509 271,-940 -499,-172 -173,173 -473,401 -607,602 286,256 1788,1963 1991,2034 279,98 756,-513 1075,-831 1251,-1246 1181,-843 -91,-2119 -327,-328 -723,-681 -1014,-1023l-340 312z"/>
  <path class="fil0" d="M3870 6082c184,-116 676,-665 914,-890 154,-146 197,-167 130,-425 -306,-167 -372,2 -543,175 -149,150 -328,292 -438,460 -178,-77 -283,-237 -401,-360 121,-116 435,-320 310,-549 -200,-124 -426,206 -538,316l-257 -254c9,-5 753,-597 700,-865 -112,-573 -918,366 -1050,508l-201 -192 1259 -1273c281,119 1456,1506 1805,1733l331 -289c-123,-210 -1515,-1507 -1850,-1883 -74,-83 -81,-134 -210,-154 -248,-39 -704,554 -1002,851 -1249,1244 -1055,952 -445,1615 197,213 1307,1365 1488,1478z"/>
 </g>
</svg>
