<?xml version="1.0" encoding="UTF-8"?>
<!DOCTYPE svg PUBLIC "-//W3C//DTD SVG 1.1//EN" "http://www.w3.org/Graphics/SVG/1.1/DTD/svg11.dtd">
<!-- Creator: CorelDRAW 2017 -->
<svg xmlns="http://www.w3.org/2000/svg" xml:space="preserve" width="11.811in" height="11.811in" version="1.1" style="shape-rendering:geometricPrecision; text-rendering:geometricPrecision; image-rendering:optimizeQuality; fill-rule:evenodd; clip-rule:evenodd"
viewBox="0 0 11811 11811"
 xmlns:xlink="http://www.w3.org/1999/xlink">
 <defs>
  <style type="text/css">
   <![CDATA[
    .str0 {stroke:white;stroke-width:3}
    .fil0 {fill:white}
   ]]>
  </style>
 </defs>
 <g id="Layer_x0020_1">
  <metadata id="CorelCorpID_0Corel-Layer"/>
  <g id="_2122494008336">
   <path class="fil0" d="M4049 7134l0 152c45,112 44,438 299,430l495 -1c92,0 151,-15 205,32 77,68 157,194 114,352 -25,91 -270,300 -350,376l-124 129c-52,54 -87,67 -78,166 16,199 156,355 279,472 72,69 186,138 293,191 196,96 212,48 327,-64 87,-84 165,-159 252,-243 116,-112 175,-205 289,-205 153,1 272,74 330,154 125,173 -59,760 97,893 129,110 276,106 354,138l199 0c54,-24 210,-30 390,-105 154,-64 131,-187 129,-367 -4,-350 -87,-643 283,-705 174,-29 165,6 322,157l374 363c57,47 121,46 192,11 213,-104 422,-236 543,-447 183,-321 38,-392 -207,-622 -46,-43 -225,-209 -247,-249 -71,-130 0,-300 65,-370 51,-55 80,-57 181,-56 84,1 169,0 253,0 321,-1 440,64 544,-209 24,-63 29,-146 54,-202l0 -199c-24,-51 -29,-141 -45,-203 -91,-347 -139,-325 -438,-323 -76,0 -445,10 -487,-6 -37,-14 -100,-92 -121,-132 -31,-60 -42,-134 -28,-208 21,-109 81,-125 161,-208l319 -315c208,-192 -52,-504 -206,-644 -73,-67 -191,-138 -303,-193 -193,-94 -231,-7 -331,89 -87,84 -166,159 -252,243 -46,44 -84,80 -129,124 -59,58 -67,73 -186,61 -135,-14 -260,-94 -301,-193 -25,-59 -12,-402 -12,-494 1,-187 31,-317 -121,-387 -175,-81 -332,-78 -398,-108l-216 0c-55,26 -139,34 -198,58 -262,108 -197,223 -199,552 -1,184 27,345 -51,441 -61,75 -210,149 -360,132 -56,-6 -114,-77 -145,-107 -44,-42 -79,-76 -123,-119 -366,-353 -332,-398 -588,-269 -201,102 -417,281 -503,499 -108,275 33,304 328,590 44,43 79,86 125,128 164,152 19,455 -120,464 -146,10 -344,1 -495,-1 -193,-2 -278,-10 -340,157 -78,209 -75,341 -97,397zm2790 -1073c-613,91 -1034,621 -954,1241 71,552 591,1049 1241,953 560,-83 1030,-579 949,-1242 -67,-549 -596,-1048 -1235,-953z"/>
   <path class="fil0 str0" d="M6865 6512c-184,32 -327,136 -407,246 -366,503 62,1153 643,1048 316,-57 598,-380 524,-768 -62,-322 -368,-594 -760,-526z"/>
  </g>
  <g id="_2122494009072">
   <path class="fil0" d="M2568 3084l0 98c29,72 28,281 192,277l319 -1c59,0 97,-10 132,21 50,44 101,125 74,226 -16,59 -174,193 -225,242l-80 83c-33,35 -56,43 -50,106 10,128 100,228 180,303 47,44 119,89 189,123 126,62 136,31 211,-41 56,-54 106,-102 162,-156 75,-72 112,-132 186,-132 98,1 175,47 212,99 80,111 -38,489 62,575 83,71 177,68 227,89l128 0c34,-15 135,-19 251,-68 99,-41 84,-120 83,-236 -2,-225 -56,-414 182,-453 112,-19 106,4 207,101l241 233c37,30 78,29 124,7 137,-67 272,-152 349,-288 118,-206 25,-252 -133,-400 -29,-28 -145,-134 -159,-160 -46,-84 0,-193 42,-238 33,-35 51,-37 116,-36 54,0 109,0 163,0 206,-1 283,41 350,-134 15,-40 18,-94 35,-130l0 -128c-16,-33 -19,-91 -29,-131 -58,-223 -89,-209 -282,-208 -49,0 -286,6 -313,-4 -24,-9 -65,-59 -78,-85 -20,-39 -27,-86 -18,-134 13,-70 52,-80 103,-134l205 -202c134,-124 -34,-324 -132,-414 -47,-43 -123,-89 -195,-124 -124,-60 -149,-5 -213,57 -56,54 -107,102 -162,156 -29,28 -54,51 -83,80 -38,37 -43,47 -120,39 -87,-9 -167,-60 -193,-124 -16,-38 -8,-258 -7,-318 1,-120 20,-204 -78,-249 -112,-52 -213,-50 -256,-69l-139 0c-35,17 -90,22 -127,37 -168,70 -127,143 -128,355 -1,118 17,222 -33,284 -39,48 -135,96 -231,85 -36,-4 -73,-50 -93,-69 -28,-27 -51,-49 -79,-77 -235,-227 -214,-256 -378,-173 -130,66 -268,181 -323,321 -70,177 21,196 211,380 29,28 51,55 80,82 106,98 12,293 -77,299 -94,6 -222,1 -319,0 -124,-1 -179,-6 -219,101 -50,134 -48,219 -63,255zm1795 -690c-395,58 -665,400 -614,799 45,355 380,675 798,613 361,-53 662,-373 611,-799 -43,-353 -383,-674 -795,-613z"/>
   <path class="fil0 str0" d="M4380 2684c-118,21 -210,88 -262,158 -235,324 40,741 414,674 204,-37 385,-245 337,-494 -40,-207 -237,-382 -489,-338z"/>
  </g>
 </g>
</svg>
