<?xml version="1.0" encoding="UTF-8"?>
<!DOCTYPE svg PUBLIC "-//W3C//DTD SVG 1.1//EN" "http://www.w3.org/Graphics/SVG/1.1/DTD/svg11.dtd">
<!-- Creator: CorelDRAW 2017 -->
<svg xmlns="http://www.w3.org/2000/svg" xml:space="preserve" width="11.811in" height="11.811in" version="1.1" style="shape-rendering:geometricPrecision; text-rendering:geometricPrecision; image-rendering:optimizeQuality; fill-rule:evenodd; clip-rule:evenodd"
viewBox="0 0 11811 11811"
 xmlns:xlink="http://www.w3.org/1999/xlink">
 <defs>
  <style type="text/css">
   <![CDATA[
    .str0 {stroke:white;stroke-width:3}
    .fil0 {fill:white}
   ]]>
  </style>
 </defs>
 <g id="Layer_x0020_1">
  <metadata id="CorelCorpID_0Corel-Layer"/>
  <g id="_2122617821072">
   <path class="fil0" d="M1636 5870l0 222c65,163 64,637 436,627l722 -2c133,1 221,-22 299,47 113,99 228,283 167,512 -36,133 -394,437 -510,548l-180 189c-75,79 -126,98 -114,241 24,290 227,517 407,687 105,100 270,201 427,278 286,140 308,70 477,-93 127,-122 240,-232 367,-354 170,-163 254,-299 422,-298 222,2 396,107 480,224 181,252 -86,1107 141,1301 188,161 402,155 515,201l290 0c78,-35 305,-44 569,-154 225,-94 191,-273 188,-534 -5,-510 -127,-937 412,-1027 253,-42 241,8 469,229l545 528c83,69 176,66 280,16 311,-152 615,-344 791,-652 267,-467 56,-571 -301,-906 -66,-62 -328,-304 -360,-362 -103,-190 0,-436 95,-539 74,-80 116,-83 264,-81 122,1 247,1 369,0 467,-2 642,93 793,-304 35,-92 42,-213 79,-294l0 -289c-35,-74 -42,-206 -66,-296 -132,-505 -203,-473 -639,-471 -111,1 -649,14 -710,-9 -54,-21 -146,-135 -176,-192 -45,-87 -61,-196 -40,-302 30,-158 118,-182 234,-302l464 -458c303,-280 -76,-735 -300,-938 -107,-97 -278,-201 -441,-280 -281,-137 -337,-10 -482,130 -127,122 -241,232 -367,354 -66,64 -123,116 -188,181 -86,85 -98,107 -271,89 -197,-21 -378,-137 -438,-281 -36,-86 -18,-585 -17,-720 2,-272 45,-462 -176,-564 -255,-118 -483,-114 -580,-157l-315 0c-80,38 -203,49 -288,84 -382,158 -287,324 -290,805 -1,268 39,503 -74,643 -89,110 -307,217 -524,193 -81,-9 -165,-113 -211,-156 -64,-62 -115,-111 -179,-173 -533,-514 -484,-580 -856,-392 -293,149 -607,409 -732,727 -157,401 49,443 477,860 65,63 116,125 182,186 239,221 28,663 -175,676 -213,14 -502,1 -722,-1 -281,-3 -405,-14 -496,229 -113,304 -109,497 -142,578zm4064 -1563c-893,132 -1506,905 -1390,1809 103,804 861,1528 1808,1388 817,-121 1500,-844 1383,-1809 -97,-800 -868,-1526 -1800,-1388z"/>
   <path class="fil0 str0" d="M5739 4964c-268,47 -477,199 -593,358 -533,733 91,1679 937,1526 461,-83 871,-554 763,-1119 -90,-470 -537,-866 -1107,-766z"/>
  </g>
 </g>
</svg>
