<?xml version="1.0" encoding="UTF-8"?>
<!DOCTYPE svg PUBLIC "-//W3C//DTD SVG 1.1//EN" "http://www.w3.org/Graphics/SVG/1.1/DTD/svg11.dtd">
<!-- Creator: CorelDRAW 2017 -->
<svg xmlns="http://www.w3.org/2000/svg" xml:space="preserve" width="11.811in" height="11.811in" version="1.1" style="shape-rendering:geometricPrecision; text-rendering:geometricPrecision; image-rendering:optimizeQuality; fill-rule:evenodd; clip-rule:evenodd"
viewBox="0 0 11811 11811"
 xmlns:xlink="http://www.w3.org/1999/xlink">
 <defs>
  <style type="text/css">
   <![CDATA[
    .fil0 {fill:white}
   ]]>
  </style>
 </defs>
 <g id="Layer_x0020_1">
  <metadata id="CorelCorpID_0Corel-Layer"/>
  <path class="fil0" d="M8805 4854l-5712 -4c-17,1014 -1,2101 -1,3129 0,338 -15,715 2,1048 31,601 422,1051 864,1227 317,126 577,103 943,103l2081 0c360,0 633,24 948,-98 437,-170 854,-636 872,-1218 21,-687 4,-1403 4,-2095 0,-689 19,-1406 -1,-2092zm-2290 -2758l50 258c23,121 -57,239 -178,263l-1452 280c-121,23 -239,-57 -263,-178l-50 -258c-23,-121 57,-239 178,-263l1452 -280c121,-23 239,57 263,178zm-2455 3481l-194 0c-69,0 -125,56 -125,125l0 3583c0,69 56,125 125,125l281 0c21,0 38,-17 38,-38l0 -3670c0,-69 -56,-125 -125,-125zm3764 22l194 0c69,0 125,56 125,125l0 3583c0,69 -56,125 -125,125l-281 0c-21,0 -38,-17 -38,-38l0 -3670c0,-69 56,-125 125,-125zm-986 -17l194 0c69,0 125,56 125,125l0 3583c0,69 -56,125 -125,125l-194 0c-69,0 -125,-56 -125,-125l0 -3583c0,-69 56,-125 125,-125zm-941 -4l194 0c69,0 125,56 125,125l0 3583c0,69 -56,125 -125,125l-194 0c-69,0 -125,-56 -125,-125l0 -3583c0,-69 56,-125 125,-125zm-1014 0l194 0c69,0 125,56 125,125l0 3583c0,69 -56,125 -125,125l-194 0c-69,0 -125,-56 -125,-125l0 -3583c0,-69 56,-125 125,-125zm-844 -2493c-245,47 -503,89 -745,143 -333,74 -584,329 -618,671 -18,183 47,395 75,572 92,15 2790,-497 3124,-561 414,-79 1186,-233 1569,-289 236,-35 548,-93 779,-150 241,-59 539,-75 780,-141l8 -24c8,-59 -29,-199 -41,-264 -19,-100 -36,-199 -77,-283 -75,-153 -209,-278 -366,-353 -392,-186 -920,78 -1192,69 -80,-276 -33,-716 -581,-901 -222,-75 -436,-13 -645,26l-1253 228c-382,64 -749,153 -872,609 -42,156 -10,513 54,649z"/>
 </g>
</svg>
